<mxfile host="app.diagrams.net" modified="2024-01-22T13:27:01.804Z" agent="Mozilla/5.0 (Macintosh; Intel Mac OS X 10_15_7) AppleWebKit/537.36 (KHTML, like Gecko) Chrome/120.0.0.0 Safari/537.36" etag="MIoWjHwSh-u-GLhZ5Vwx" version="21.3.5" type="github">
  <diagram name="Page-1" id="5pY-RSxAmSt5iOWaq7EZ">
    <mxGraphModel dx="954" dy="496" grid="1" gridSize="10" guides="1" tooltips="1" connect="1" arrows="1" fold="1" page="1" pageScale="1" pageWidth="827" pageHeight="1169" math="0" shadow="0">
      <root>
        <mxCell id="0" />
        <mxCell id="1" parent="0" />
        <mxCell id="MyCnfWOqVa5GIsgSaZat-1" value="" style="rounded=1;whiteSpace=wrap;html=1;" vertex="1" parent="1">
          <mxGeometry x="160" y="40" width="530" height="460" as="geometry" />
        </mxCell>
        <mxCell id="MyCnfWOqVa5GIsgSaZat-4" value="Laser Range Finder (LRF)" style="rounded=0;whiteSpace=wrap;html=1;" vertex="1" parent="1">
          <mxGeometry x="170" y="290" width="190" height="160" as="geometry" />
        </mxCell>
        <mxCell id="MyCnfWOqVa5GIsgSaZat-3" value="" style="ellipse;whiteSpace=wrap;html=1;direction=south;" vertex="1" parent="1">
          <mxGeometry x="140" y="360" width="50" height="60" as="geometry" />
        </mxCell>
        <mxCell id="MyCnfWOqVa5GIsgSaZat-2" value="" style="ellipse;whiteSpace=wrap;html=1;direction=south;" vertex="1" parent="1">
          <mxGeometry x="140" y="320" width="50" height="60" as="geometry" />
        </mxCell>
        <mxCell id="MyCnfWOqVa5GIsgSaZat-41" style="edgeStyle=orthogonalEdgeStyle;rounded=0;orthogonalLoop=1;jettySize=auto;html=1;exitX=1;exitY=0.6;exitDx=0;exitDy=0;exitPerimeter=0;" edge="1" parent="1" source="MyCnfWOqVa5GIsgSaZat-4">
          <mxGeometry relative="1" as="geometry">
            <mxPoint x="430" y="420" as="targetPoint" />
          </mxGeometry>
        </mxCell>
        <mxCell id="MyCnfWOqVa5GIsgSaZat-48" style="edgeStyle=orthogonalEdgeStyle;rounded=0;orthogonalLoop=1;jettySize=auto;html=1;entryX=0.5;entryY=1;entryDx=0;entryDy=0;" edge="1" parent="1" source="MyCnfWOqVa5GIsgSaZat-5" target="MyCnfWOqVa5GIsgSaZat-23">
          <mxGeometry relative="1" as="geometry" />
        </mxCell>
        <mxCell id="MyCnfWOqVa5GIsgSaZat-5" value="Microcontroller" style="rounded=0;whiteSpace=wrap;html=1;" vertex="1" parent="1">
          <mxGeometry x="430" y="320" width="180" height="120" as="geometry" />
        </mxCell>
        <mxCell id="MyCnfWOqVa5GIsgSaZat-6" value="" style="endArrow=none;dashed=1;html=1;dashPattern=1 3;strokeWidth=2;rounded=0;entryX=0.989;entryY=0.817;entryDx=0;entryDy=0;entryPerimeter=0;exitX=0;exitY=0.833;exitDx=0;exitDy=0;exitPerimeter=0;" edge="1" parent="1" source="MyCnfWOqVa5GIsgSaZat-5" target="MyCnfWOqVa5GIsgSaZat-5">
          <mxGeometry width="50" height="50" relative="1" as="geometry">
            <mxPoint x="490" y="440" as="sourcePoint" />
            <mxPoint x="540" y="390" as="targetPoint" />
          </mxGeometry>
        </mxCell>
        <mxCell id="MyCnfWOqVa5GIsgSaZat-7" value="" style="endArrow=none;dashed=1;html=1;dashPattern=1 3;strokeWidth=2;rounded=0;entryX=0.989;entryY=0.817;entryDx=0;entryDy=0;entryPerimeter=0;exitX=0;exitY=0.833;exitDx=0;exitDy=0;exitPerimeter=0;" edge="1" parent="1">
          <mxGeometry width="50" height="50" relative="1" as="geometry">
            <mxPoint x="432" y="332" as="sourcePoint" />
            <mxPoint x="610" y="330" as="targetPoint" />
          </mxGeometry>
        </mxCell>
        <mxCell id="MyCnfWOqVa5GIsgSaZat-9" value="" style="whiteSpace=wrap;html=1;aspect=fixed;" vertex="1" parent="1">
          <mxGeometry x="460" y="340" width="20" height="20" as="geometry" />
        </mxCell>
        <mxCell id="MyCnfWOqVa5GIsgSaZat-10" value="" style="whiteSpace=wrap;html=1;aspect=fixed;" vertex="1" parent="1">
          <mxGeometry x="550" y="390" width="20" height="20" as="geometry" />
        </mxCell>
        <mxCell id="MyCnfWOqVa5GIsgSaZat-11" value="" style="whiteSpace=wrap;html=1;aspect=fixed;" vertex="1" parent="1">
          <mxGeometry x="510" y="390" width="20" height="20" as="geometry" />
        </mxCell>
        <mxCell id="MyCnfWOqVa5GIsgSaZat-12" value="" style="whiteSpace=wrap;html=1;aspect=fixed;" vertex="1" parent="1">
          <mxGeometry x="460" y="390" width="20" height="20" as="geometry" />
        </mxCell>
        <mxCell id="MyCnfWOqVa5GIsgSaZat-13" value="" style="whiteSpace=wrap;html=1;aspect=fixed;" vertex="1" parent="1">
          <mxGeometry x="520" y="340" width="20" height="20" as="geometry" />
        </mxCell>
        <mxCell id="MyCnfWOqVa5GIsgSaZat-17" value="" style="rounded=0;whiteSpace=wrap;html=1;direction=south;" vertex="1" parent="1">
          <mxGeometry x="430" y="380" width="10" height="20" as="geometry" />
        </mxCell>
        <mxCell id="MyCnfWOqVa5GIsgSaZat-18" value="" style="rounded=0;whiteSpace=wrap;html=1;direction=south;" vertex="1" parent="1">
          <mxGeometry x="430" y="350" width="10" height="20" as="geometry" />
        </mxCell>
        <mxCell id="MyCnfWOqVa5GIsgSaZat-19" value="" style="rounded=0;whiteSpace=wrap;html=1;direction=south;" vertex="1" parent="1">
          <mxGeometry x="600" y="340" width="10" height="20" as="geometry" />
        </mxCell>
        <mxCell id="MyCnfWOqVa5GIsgSaZat-20" value="" style="rounded=0;whiteSpace=wrap;html=1;direction=south;" vertex="1" parent="1">
          <mxGeometry x="600" y="380" width="10" height="20" as="geometry" />
        </mxCell>
        <mxCell id="MyCnfWOqVa5GIsgSaZat-46" style="edgeStyle=orthogonalEdgeStyle;rounded=0;orthogonalLoop=1;jettySize=auto;html=1;entryX=0;entryY=1;entryDx=0;entryDy=0;" edge="1" parent="1" source="MyCnfWOqVa5GIsgSaZat-21" target="MyCnfWOqVa5GIsgSaZat-17">
          <mxGeometry relative="1" as="geometry">
            <Array as="points">
              <mxPoint x="225" y="270" />
              <mxPoint x="370" y="270" />
              <mxPoint x="370" y="380" />
            </Array>
          </mxGeometry>
        </mxCell>
        <mxCell id="MyCnfWOqVa5GIsgSaZat-21" value="Gyro" style="ellipse;whiteSpace=wrap;html=1;aspect=fixed;" vertex="1" parent="1">
          <mxGeometry x="190" y="140" width="70" height="70" as="geometry" />
        </mxCell>
        <mxCell id="MyCnfWOqVa5GIsgSaZat-23" value="Skjerm" style="rounded=0;whiteSpace=wrap;html=1;" vertex="1" parent="1">
          <mxGeometry x="550" y="205" width="120" height="55" as="geometry" />
        </mxCell>
        <mxCell id="MyCnfWOqVa5GIsgSaZat-24" value="optikk" style="shape=or;whiteSpace=wrap;html=1;direction=west;rotation=30;" vertex="1" parent="1">
          <mxGeometry x="480" y="170" width="40" height="50" as="geometry" />
        </mxCell>
        <mxCell id="MyCnfWOqVa5GIsgSaZat-25" value="speil" style="shape=dataStorage;whiteSpace=wrap;html=1;fixedSize=1;" vertex="1" parent="1">
          <mxGeometry x="376" y="45" width="76" height="160" as="geometry" />
        </mxCell>
        <mxCell id="MyCnfWOqVa5GIsgSaZat-26" value="" style="endArrow=classic;html=1;rounded=0;exitX=0;exitY=0.5;exitDx=0;exitDy=0;entryX=0;entryY=0.5;entryDx=0;entryDy=0;entryPerimeter=0;" edge="1" parent="1" source="MyCnfWOqVa5GIsgSaZat-23" target="MyCnfWOqVa5GIsgSaZat-24">
          <mxGeometry width="50" height="50" relative="1" as="geometry">
            <mxPoint x="485" y="430" as="sourcePoint" />
            <mxPoint x="530" y="210" as="targetPoint" />
          </mxGeometry>
        </mxCell>
        <mxCell id="MyCnfWOqVa5GIsgSaZat-27" value="" style="endArrow=classic;html=1;rounded=0;exitX=1;exitY=0.5;exitDx=0;exitDy=0;entryX=0.776;entryY=0.494;entryDx=0;entryDy=0;entryPerimeter=0;exitPerimeter=0;" edge="1" parent="1" source="MyCnfWOqVa5GIsgSaZat-36" target="MyCnfWOqVa5GIsgSaZat-25">
          <mxGeometry width="50" height="50" relative="1" as="geometry">
            <mxPoint x="560" y="400" as="sourcePoint" />
            <mxPoint x="531" y="376" as="targetPoint" />
          </mxGeometry>
        </mxCell>
        <mxCell id="MyCnfWOqVa5GIsgSaZat-28" value="" style="endArrow=classic;html=1;rounded=0;entryX=0;entryY=0.5;entryDx=0;entryDy=0;entryPerimeter=0;exitX=0.8;exitY=0.533;exitDx=0;exitDy=0;exitPerimeter=0;" edge="1" parent="1" source="MyCnfWOqVa5GIsgSaZat-36" target="MyCnfWOqVa5GIsgSaZat-33">
          <mxGeometry width="50" height="50" relative="1" as="geometry">
            <mxPoint x="450" y="135" as="sourcePoint" />
            <mxPoint x="440" y="230" as="targetPoint" />
          </mxGeometry>
        </mxCell>
        <mxCell id="MyCnfWOqVa5GIsgSaZat-29" value="strømkilde" style="rounded=1;whiteSpace=wrap;html=1;" vertex="1" parent="1">
          <mxGeometry x="200" y="60" width="120" height="60" as="geometry" />
        </mxCell>
        <mxCell id="MyCnfWOqVa5GIsgSaZat-47" style="edgeStyle=orthogonalEdgeStyle;rounded=0;orthogonalLoop=1;jettySize=auto;html=1;" edge="1" parent="1" source="MyCnfWOqVa5GIsgSaZat-30" target="MyCnfWOqVa5GIsgSaZat-5">
          <mxGeometry relative="1" as="geometry" />
        </mxCell>
        <mxCell id="MyCnfWOqVa5GIsgSaZat-30" value="Vindstyrkehjul" style="shape=or;whiteSpace=wrap;html=1;" vertex="1" parent="1">
          <mxGeometry x="690" y="310" width="80" height="80" as="geometry" />
        </mxCell>
        <mxCell id="MyCnfWOqVa5GIsgSaZat-32" value="" style="triangle;whiteSpace=wrap;html=1;" vertex="1" parent="1">
          <mxGeometry x="707" y="85" width="120" height="80" as="geometry" />
        </mxCell>
        <mxCell id="MyCnfWOqVa5GIsgSaZat-33" value="øye" style="shape=or;whiteSpace=wrap;html=1;" vertex="1" parent="1">
          <mxGeometry x="707" y="100" width="33" height="50" as="geometry" />
        </mxCell>
        <mxCell id="MyCnfWOqVa5GIsgSaZat-42" style="edgeStyle=orthogonalEdgeStyle;rounded=0;orthogonalLoop=1;jettySize=auto;html=1;entryX=0.25;entryY=1;entryDx=0;entryDy=0;exitX=1;exitY=1;exitDx=0;exitDy=0;" edge="1" parent="1" source="MyCnfWOqVa5GIsgSaZat-34" target="MyCnfWOqVa5GIsgSaZat-18">
          <mxGeometry relative="1" as="geometry">
            <Array as="points">
              <mxPoint x="348" y="250" />
              <mxPoint x="395" y="250" />
              <mxPoint x="395" y="355" />
            </Array>
          </mxGeometry>
        </mxCell>
        <mxCell id="MyCnfWOqVa5GIsgSaZat-34" value="Temp/trykk sensor" style="ellipse;whiteSpace=wrap;html=1;aspect=fixed;" vertex="1" parent="1">
          <mxGeometry x="280" y="140" width="80" height="80" as="geometry" />
        </mxCell>
        <mxCell id="MyCnfWOqVa5GIsgSaZat-37" value="" style="endArrow=classic;html=1;rounded=0;exitX=1;exitY=0.5;exitDx=0;exitDy=0;exitPerimeter=0;entryX=0.71;entryY=1;entryDx=0;entryDy=0;entryPerimeter=0;" edge="1" parent="1" source="MyCnfWOqVa5GIsgSaZat-24" target="MyCnfWOqVa5GIsgSaZat-36">
          <mxGeometry width="50" height="50" relative="1" as="geometry">
            <mxPoint x="493" y="185" as="sourcePoint" />
            <mxPoint x="450" y="150" as="targetPoint" />
          </mxGeometry>
        </mxCell>
        <mxCell id="MyCnfWOqVa5GIsgSaZat-36" value="" style="verticalLabelPosition=bottom;verticalAlign=top;html=1;shape=mxgraph.basic.8_point_star" vertex="1" parent="1">
          <mxGeometry x="422" y="110" width="30" height="30" as="geometry" />
        </mxCell>
      </root>
    </mxGraphModel>
  </diagram>
</mxfile>
